<svg xmlns="http://www.w3.org/2000/svg" viewBox="0 0 240.05 240.23"><g id="Capa_2" data-name="Capa 2"><g id="Capa_1-2" data-name="Capa 1"><path d="M240,148.25q0,31,0,62c0,18-12.09,30-30.11,30q-62,0-123.93,0c-17.69,0-29.86-12.1-29.88-29.74q-.06-62.22,0-124.43C56.13,68.39,68.27,56.32,86,56.3q62.22,0,124.44,0c17.4,0,29.57,12.16,29.61,29.47C240.07,106.6,240,127.43,240,148.25Zm-92.37,73q31.23,0,62.45,0c7.65,0,11-3.3,11-10.92q0-62,0-123.91c0-8-3.22-11.22-11.17-11.22q-61.69,0-123.41,0c-8.33,0-11.46,3.13-11.47,11.42q0,61.71,0,123.41c0,8,3.21,11.21,11.16,11.22Q116.95,221.31,147.67,221.29Z"/><path d="M37.33,183.56C17.81,185.78,4.52,177.73.73,161.9A32.3,32.3,0,0,1,0,154.48Q0,92,0,29.56C.05,12,11.82.23,29.49.21,70.8.16,112.12.6,153.42,0c17-.24,33.9,13.12,29.78,37h-18c-.08-1.8-.2-3.42-.21-5C165,21.72,162.25,19,151.88,19H34c-2.16,0-4.33-.07-6.49.08-5.07.36-8.16,3.49-8.54,8.61-.13,1.66-.08,3.33-.08,5V150.65c0,12.4,2,14.36,14.48,14.55,1.13,0,2.27.1,4,.18v18.18Z"/></g></g></svg>