<svg xmlns="http://www.w3.org/2000/svg" viewBox="0 0 251.99 256.04"><defs><style>.cls-1{fill:#0e0e0e;}</style></defs><g id="Capa_2" data-name="Capa 2"><g id="Capa_1-2" data-name="Capa 1"><path class="cls-1" d="M56.27,0C61.64,8.73,66.93,17.31,72.2,25.9L135.46,129c8.51,13.87,19.64,16.77,33.71,8.81,18.37-10.4,39.49-5.69,51.43,11.7q12.69,18.48,24.89,37.29c11.61,18,7.31,40-10.08,52.45-5,3.57-10.13,7-15.31,10.27-18.56,11.79-41.1,7.2-53.49-11.07s-24.72-37-37.07-55.52q-42-63-84-126c-12.61-19-8.87-41.77,8.76-55.62C54.79.9,55.35.6,56.27,0ZM198.6,229c2.65.21,4.92-.89,7-2.25,4.74-3.07,9.46-6.18,14.08-9.43,5.49-3.87,7-9.62,3.38-15.22Q210.79,183,197.91,164.33c-3.84-5.57-9.66-6.54-15.33-3q-7.43,4.59-14.51,9.7c-5.24,3.81-6.74,10.45-3.22,15.93,8.09,12.57,16.49,24.94,24.84,37.34A10.75,10.75,0,0,0,198.6,229Zm-73-73a10.82,10.82,0,0,0,10.53-11,10.65,10.65,0,0,0-11.22-10.19,10.58,10.58,0,0,0,.69,21.14Z"/><path class="cls-1" d="M53,255.94a18,18,0,0,1-8-1c-15.11-5.35-29-13.11-38.3-26.33-9.07-12.92-8.83-27.33-.47-40.8s17.13-26.49,26.21-39.37c12.4-17.6,37.2-21.26,54.36-8.41a13.37,13.37,0,0,1,2.9,3.35C99,157.15,108.12,171,117.48,184.73c1.73,2.54,1.43,4.18-.14,6.51C106.84,206.79,96.51,222.45,86,238,78.12,249.8,66.81,256,53,255.94Zm36.24-74.62c-.11-4.92-1.88-8.17-5.23-10.49-4.65-3.21-9.3-6.44-14.09-9.43-5.75-3.59-11.53-2.79-15.37,2.75Q41.52,183,29.17,202.31c-3.49,5.47-2,11.05,3.3,14.82,4.33,3.08,8.81,6,13.26,8.86,7.55,4.9,13.28,3.82,18.25-3.56,7.52-11.16,14.94-22.39,22.4-33.59C88.06,186.32,89.55,183.73,89.26,181.32Z"/><path class="cls-1" d="M196.22,0c19.24,14.27,23.55,37.23,10.7,56.72-15.44,23.43-31.13,46.7-46.71,70-3.55,5.32-8.06,5.77-12.19.7-2.81-3.45-4.43-7.91-7.39-11.18-8.09-8.93-6.64-16.51-.2-26.36C159,61.48,176.31,32.16,194.12,3.18,194.72,2.21,195.37,1.28,196.22,0Z"/></g></g></svg>